# xmcd CD database file
#
# Track frame offsets:
#	150
#	17102
#	37781
#	54437
#	69079
#	80409
#	98452
#	114948
#	134453
#	153424
#	167641
#	182659
#	214228
#	223246
#	243151
#	260979
#	283049
#	297372
#	323729
#
# Disc length: 4449 seconds
#
# Revision: 0
# Processed by: cddbd v1.4PL0 Copyright (c) Steve Scherf et al.
# Submitted via: CDex 1.50
#
DISCID=0c115f13
DTITLE=diverse artists - Hessen Jazz Idstein 2000
DYEAR=2000
DGENRE=Jazz
TTITLE0=Leathertown Jazzband - Get Happy
TTITLE1=In Touch - Into The Day
TTITLE2=Schlaier Hirt Duo - Chicks
TTITLE3=Lerchenheide Swing Five - Seven Come Eleven
TTITLE4=Jungle Orchestra - Yes Sir That´s My Baby
TTITLE5=Cocofurias - Brighter Than Light
TTITLE6=Köstritzer Jazzband - You´ve got Soul
TTITLE7=Rhine Town Band - Yesterdays
TTITLE8=Bow-Tie Bigband - The Piece Bob Didn´t Write
TTITLE9=New Orleans Night Birds - Put On Your Old Grey Bonnet
TTITLE10=Elena Poletti and Band - Whisper Not
TTITLE11=Das Schmidt and Brandt Qunintett - Humpty Dumpty
TTITLE12=Roll´s Choice - Can´t Leave Her Alone
TTITLE13=Blue Lane - My Little Anna
TTITLE14=Soren Leyers - Cherokee
TTITLE15=Main Influenz - Killing Floor
TTITLE16=Big Band ´84 - Summertime
TTITLE17=Marcus Schinkel Trio - Walking Through Sonsbeek Park
TTITLE18=Hal and Seitz - My Babe
EXTD=YEAR: 2000
EXTT0=
EXTT1=
EXTT2=
EXTT3=
EXTT4=
EXTT5=
EXTT6=
EXTT7=
EXTT8=
EXTT9=
EXTT10=
EXTT11=
EXTT12=
EXTT13=
EXTT14=
EXTT15=
EXTT16=
EXTT17=
EXTT18=
PLAYORDER=
